<svg width="128" height="128" viewBox="0 0 128 128" xmlns="http://www.w3.org/2000/svg" role="img" aria-label="Python">
  <defs>
    <linearGradient id="pyA" x1="0%" y1="0%" x2="100%" y2="0%">
      <stop offset="0%" stop-color="#f7971e"/>
      <stop offset="100%" stop-color="#ffd200"/>
    </linearGradient>
    <linearGradient id="pyB" x1="0%" y1="0%" x2="0%" y2="100%">
      <stop offset="0%" stop-color="#1e90ff"/>
      <stop offset="100%" stop-color="#396afc"/>
    </linearGradient>
  </defs>
  <rect rx="24" ry="24" width="128" height="128" fill="url(#pyB)"/>
  <g transform="translate(18,18)">
    <path fill="#fff" opacity="0.9" d="M58 12H34c-7.7 0-14 6.3-14 14v10h18c3.3 0 6 2.7 6 6v6H34c-7.7 0-14 6.3-14 14v12c0 1.1.9 2 2 2h24c7.7 0 14-6.3 14-14V62H42c-3.3 0-6-2.7-6-6v-6h14c7.7 0 14-6.3 14-14V14c0-1.1-.9-2-2-2z"/>
    <circle cx="42" cy="22" r="4" fill="url(#pyA)"/>
  </g>
</svg>
